<mxfile host="app.diagrams.net" agent="Mozilla/5.0 (Windows NT 10.0; Win64; x64) AppleWebKit/537.36 (KHTML, like Gecko) Chrome/126.0.0.0 Safari/537.36 OPR/112.0.0.0" version="24.7.13">
  <diagram name="Página-1" id="GsQh7Do99ydtdkv8RFC1">
    <mxGraphModel grid="1" page="1" gridSize="10" guides="1" tooltips="1" connect="1" arrows="1" fold="1" pageScale="1" pageWidth="827" pageHeight="1169" math="0" shadow="0">
      <root>
        <mxCell id="0" />
        <mxCell id="1" parent="0" />
        <mxCell id="5zGYEMkHxL3IpKfCTkxm-1" value="4)Recuperación de usuario y contraseña" style="text;whiteSpace=wrap;" vertex="1" parent="1">
          <mxGeometry x="279" y="240" width="250" height="40" as="geometry" />
        </mxCell>
        <mxCell id="5zGYEMkHxL3IpKfCTkxm-2" value="" style="rounded=0;whiteSpace=wrap;html=1;align=left;" vertex="1" parent="1">
          <mxGeometry x="140" y="140" width="540" height="340" as="geometry" />
        </mxCell>
        <mxCell id="5zGYEMkHxL3IpKfCTkxm-3" value="" style="edgeStyle=orthogonalEdgeStyle;rounded=0;orthogonalLoop=1;jettySize=auto;html=1;" edge="1" parent="1" target="5zGYEMkHxL3IpKfCTkxm-6">
          <mxGeometry relative="1" as="geometry">
            <mxPoint x="180" y="300" as="targetPoint" />
            <mxPoint x="130" y="305" as="sourcePoint" />
          </mxGeometry>
        </mxCell>
        <mxCell id="5zGYEMkHxL3IpKfCTkxm-4" value="User" style="shape=umlActor;verticalLabelPosition=bottom;verticalAlign=top;html=1;outlineConnect=0;" vertex="1" parent="1">
          <mxGeometry x="100" y="270" width="30" height="60" as="geometry" />
        </mxCell>
        <mxCell id="5zGYEMkHxL3IpKfCTkxm-5" value="" style="edgeStyle=orthogonalEdgeStyle;rounded=0;orthogonalLoop=1;jettySize=auto;html=1;" edge="1" parent="1" source="5zGYEMkHxL3IpKfCTkxm-6" target="5zGYEMkHxL3IpKfCTkxm-8">
          <mxGeometry relative="1" as="geometry" />
        </mxCell>
        <mxCell id="5zGYEMkHxL3IpKfCTkxm-6" value="Iniciar sesión" style="ellipse;whiteSpace=wrap;html=1;" vertex="1" parent="1">
          <mxGeometry x="170" y="270" width="130" height="70" as="geometry" />
        </mxCell>
        <mxCell id="5zGYEMkHxL3IpKfCTkxm-7" style="edgeStyle=orthogonalEdgeStyle;rounded=0;orthogonalLoop=1;jettySize=auto;html=1;exitX=1;exitY=0.5;exitDx=0;exitDy=0;entryX=0;entryY=0.5;entryDx=0;entryDy=0;" edge="1" parent="1" source="5zGYEMkHxL3IpKfCTkxm-8" target="5zGYEMkHxL3IpKfCTkxm-10">
          <mxGeometry relative="1" as="geometry">
            <Array as="points">
              <mxPoint x="500" y="305" />
              <mxPoint x="500" y="300" />
            </Array>
          </mxGeometry>
        </mxCell>
        <mxCell id="5zGYEMkHxL3IpKfCTkxm-8" value="Despliegue menú" style="ellipse;whiteSpace=wrap;html=1;" vertex="1" parent="1">
          <mxGeometry x="340" y="270" width="110" height="70" as="geometry" />
        </mxCell>
        <mxCell id="5zGYEMkHxL3IpKfCTkxm-10" value="Visualizar diagramas generales" style="ellipse;whiteSpace=wrap;html=1;" vertex="1" parent="1">
          <mxGeometry x="520" y="265" width="110" height="70" as="geometry" />
        </mxCell>
      </root>
    </mxGraphModel>
  </diagram>
</mxfile>
